<svg xmlns="http://www.w3.org/2000/svg" xmlns:xlink="http://www.w3.org/1999/xlink" width="20" height="20" viewBox="0 0 20 20">
    <defs>
        <filter id="q7jwa3mpxa" width="127.1%" height="230%" x="-13.5%" y="-65%" filterUnits="objectBoundingBox">
            <feOffset in="SourceAlpha" result="shadowOffsetOuter1"/>
            <feGaussianBlur in="shadowOffsetOuter1" result="shadowBlurOuter1" stdDeviation="10"/>
            <feColorMatrix in="shadowBlurOuter1" result="shadowMatrixOuter1" values="0 0 0 0 0 0 0 0 0 0 0 0 0 0 0 0 0 0 0.05 0"/>
            <feMerge>
                <feMergeNode in="shadowMatrixOuter1"/>
                <feMergeNode in="SourceGraphic"/>
            </feMerge>
        </filter>
        <path id="xbxiprlcmb" d="M14.5 15h-9V8.5C5.5 6 7.5 4 10 4s4.5 2 4.5 4.5V15zm2-1V8.5c0-3.07-2.14-5.64-5-6.32V1.5C11.5.672 10.828 0 10 0S8.5.672 8.5 1.5v.68c-2.87.68-5 3.25-5 6.32V14l-2 2v1h17v-1l-2-2zM10 20c1.105 0 2-.895 2-2H8c0 1.105.895 2 2 2z"/>
    </defs>
    <g fill="none" fill-rule="evenodd">
        <g>
            <g filter="url(#q7jwa3mpxa)" transform="translate(-222 -584) translate(36 564)">
                <g transform="translate(186 20)">
                    <use fill="#8F92A1" xlink:href="#xbxiprlcmb"/>
                </g>
            </g>
        </g>
    </g>
</svg>
