<svg xmlns="http://www.w3.org/2000/svg" xmlns:xlink="http://www.w3.org/1999/xlink" width="20" height="20" viewBox="0 0 20 20">
    <defs>
        <filter id="7idqoiiz5a" width="127.1%" height="230%" x="-13.5%" y="-65%" filterUnits="objectBoundingBox">
            <feOffset in="SourceAlpha" result="shadowOffsetOuter1"/>
            <feGaussianBlur in="shadowOffsetOuter1" result="shadowBlurOuter1" stdDeviation="10"/>
            <feColorMatrix in="shadowBlurOuter1" result="shadowMatrixOuter1" values="0 0 0 0 0 0 0 0 0 0 0 0 0 0 0 0 0 0 0.05 0"/>
            <feMerge>
                <feMergeNode in="shadowMatrixOuter1"/>
                <feMergeNode in="SourceGraphic"/>
            </feMerge>
        </filter>
        <path id="0wputae5ob" d="M7.429 0c4.102 0 7.428 3.326 7.428 7.429 0 1.84-.674 3.531-1.783 4.834l.309.308h.903L20 18.286 18.286 20l-5.715-5.714v-.903l-.308-.309c-1.303 1.109-2.994 1.783-4.834 1.783C3.326 14.857 0 11.531 0 7.43 0 3.326 3.326 0 7.429 0zm0 2.286c-2.858 0-5.143 2.285-5.143 5.143 0 2.857 2.285 5.142 5.143 5.142 2.857 0 5.142-2.285 5.142-5.142 0-2.858-2.285-5.143-5.142-5.143z"/>
    </defs>
    <g fill="none" fill-rule="evenodd">
        <g>
            <g filter="url(#7idqoiiz5a)" transform="translate(-114 -584) translate(36 564)">
                <g transform="translate(78 20)">
                    <use fill="#8F92A1" xlink:href="#0wputae5ob"/>
                </g>
            </g>
        </g>
    </g>
</svg>
