<svg xmlns="http://www.w3.org/2000/svg" width="24" height="24" viewBox="0 0 24 24">
    <defs>
        <filter id="g7whie1pda" width="127.1%" height="230%" x="-13.5%" y="-65%" filterUnits="objectBoundingBox">
            <feOffset in="SourceAlpha" result="shadowOffsetOuter1"/>
            <feGaussianBlur in="shadowOffsetOuter1" result="shadowBlurOuter1" stdDeviation="10"/>
            <feColorMatrix in="shadowBlurOuter1" result="shadowMatrixOuter1" values="0 0 0 0 0 0 0 0 0 0 0 0 0 0 0 0 0 0 0.05 0"/>
            <feMerge>
                <feMergeNode in="shadowMatrixOuter1"/>
                <feMergeNode in="SourceGraphic"/>
            </feMerge>
        </filter>
    </defs>
    <g fill="none" fill-rule="evenodd">
        <g fill="#8F92A1" fill-rule="nonzero">
            <g filter="url(#g7whie1pda)" transform="translate(-276 -582) translate(36 564)">
                <g>
                    <g>
                        <path d="M11 0C4.935 0 0 4.935 0 11s4.935 11 11 11 11-4.935 11-11S17.065 0 11 0zm0 1.692c5.15 0 9.308 4.158 9.308 9.308 0 5.15-4.158 9.308-9.308 9.308-5.15 0-9.308-4.158-9.308-9.308 0-5.15 4.158-9.308 9.308-9.308zm0 2.539c-2.327 0-4.23 1.904-4.23 4.23 0 1.283.597 2.423 1.506 3.2-1.903.988-3.2 2.978-3.2 5.262H6.77c0-2.347 1.884-4.23 4.231-4.23s4.23 1.883 4.23 4.23h1.693c0-2.284-1.296-4.274-3.2-5.262.91-.777 1.508-1.917 1.508-3.2 0-2.326-1.904-4.23-4.231-4.23zm0 1.692c1.411 0 2.538 1.127 2.538 2.539C13.538 9.872 12.411 11 11 11c-1.411 0-2.538-1.127-2.538-2.538 0-1.412 1.127-2.539 2.538-2.539z" transform="translate(240 18) translate(1 1)"/>
                    </g>
                </g>
            </g>
        </g>
    </g>
</svg>
